Coordinates
version=1
nRows=26
nColumns=24
inDegrees=yes

Units are S.I. units (second, meters, Newtons, ...)
Angles are in degrees.

endheader
time	pelvis_tilt	pelvis_list	pelvis_rotation	pelvis_tx	pelvis_ty	pelvis_tz	hip_flexion_r	hip_adduction_r	hip_rotation_r	knee_angle_r	ankle_angle_r	subtalar_angle_r	mtp_angle_r	hip_flexion_l	hip_adduction_l	hip_rotation_l	knee_angle_l	ankle_angle_l	subtalar_angle_l	mtp_angle_l	lumbar_extension	lumbar_bending	lumbar_rotation
      8.16000000	    -12.26700203	      7.34368657	      1.57332274	     -0.30202452	     -0.03695452	      2.05878774	     14.05311769	    -13.19191644	    -11.68616076	    -56.40360671	    -29.74633703	     -0.66118645	     30.75794519	     31.07658080	     13.15799568	     -3.34546732	    -22.54182093	     -3.32692656	     -7.77568938	     13.65994016	      8.44534273	     -8.64052563	     -0.69632355
      8.17000000	    -12.27650341	      7.55559827	      1.41790763	     -0.28892638	     -0.03522258	      2.05853709	     15.98151655	    -13.30463810	    -10.60945179	    -58.51697399	    -27.85912481	     -2.95071256	     28.39687643	     29.94028473	     13.27988742	     -3.79615597	    -22.03571693	     -2.76722929	     -7.45645912	     15.11578729	      8.47894815	     -8.82585469	     -0.96759958
      8.18000000	    -12.24082905	      7.65417216	      1.23305890	     -0.27588849	     -0.03324155	      2.05840310	     17.82148880	    -13.21631807	     -9.55508309	    -60.22448970	    -25.79541084	     -4.87908290	     26.93130482	     28.70908598	     13.26283663	     -4.22606091	    -21.46592514	     -2.12349650	     -6.89026331	     16.39458043	      8.47057200	     -8.89054615	     -1.25051768
      8.19000000	    -12.02613287	      7.68386588	      0.96054243	     -0.26299305	     -0.03086630	      2.05833831	     19.43593433	    -12.98256216	     -8.49773105	    -61.48405620	    -24.02223143	     -6.57482213	     26.64327600	     27.19551037	     13.20329059	     -4.41118522	    -20.74170030	     -1.51673327	     -6.50408244	     16.67101633	      8.25991991	     -8.85615092	     -1.42665179
      8.20000000	    -11.99938392	      7.59772216	      0.80811042	     -0.25018468	     -0.02872198	      2.05816849	     21.20946962	    -12.61933038	     -7.58798515	    -62.50440711	    -22.00777294	     -7.65989851	     24.28228705	     25.83518876	     13.11519620	     -4.29593021	    -19.95562264	     -0.95411098	     -6.25232169	     16.70640413	      8.23554318	     -8.72610990	     -1.72669991
      8.21000000	    -11.83458965	      7.49750760	      0.63301466	     -0.23739505	     -0.02646860	      2.05787960	     22.74817741	    -12.24583221	     -6.73116176	    -63.10331925	    -20.39787229	     -8.34528729	     24.29685130	     24.23385024	     13.07490391	     -3.95676450	    -18.98684791	     -0.59824234	     -6.39530909	     16.49434075	      8.05865060	     -8.55848758	     -1.98812965
      8.22000000	    -11.68033620	      7.27141455	      0.57498240	     -0.22474358	     -0.02434687	      2.05746854	     24.20237155	    -11.76564932	     -6.10066230	    -63.40446297	    -18.74689000	     -8.69062995	     23.33314869	     22.66327684	     12.97710363	     -3.36881624	    -18.12522530	      0.09939144	     -6.44361348	     14.34474523	      7.85055612	     -8.28481315	     -2.37387968
      8.23000000	    -11.60255125	      7.02198882	      0.54594861	     -0.21210631	     -0.02250954	      2.05699701	     25.66064977	    -11.27001380	     -5.55111551	    -63.38701705	    -17.21536033	     -8.78665681	     23.70237231	     21.16314169	     12.85596073	     -2.80664513	    -17.16425206	      0.34109647	     -6.79331725	     14.02222201	      7.72404293	     -7.99281525	     -2.75986495
      8.24000000	    -11.48884634	      6.68070738	      0.66030672	     -0.19953384	     -0.02079033	      2.05628194	     26.93895096	    -10.76140383	     -5.25843689	    -63.03276580	    -15.70208794	     -8.67061799	     24.34717205	     19.64417105	     12.68884518	     -2.11661586	    -16.25713172	      0.62134108	     -7.13865015	     13.50574507	      7.52417306	     -7.62132306	     -3.28651336
      8.25000000	    -11.35372756	      6.23926495	      0.82519309	     -0.18711280	     -0.01915219	      2.05546467	     28.06751093	    -10.17569397	     -5.11622029	    -62.26639443	    -14.63168051	     -8.73025118	     27.14244233	     18.16625286	     12.41454999	     -1.39803290	    -15.50741818	      1.31745041	     -7.16879914	     11.34601218	      7.27264975	     -7.15030083	     -3.79554821
      8.26000000	    -11.34771402	      5.79427586	      1.12120557	     -0.17484241	     -0.01786905	      2.05457068	     29.26569214	     -9.63935854	     -5.10417336	    -61.34821678	    -13.18794550	     -8.44309422	     27.56165500	     16.86622050	     12.12086414	     -0.79624229	    -14.73981064	      1.61355101	     -7.23812023	     11.25843723	      7.12670653	     -6.70811653	     -4.41862542
      8.27000000	    -11.26193558	      5.28425347	      1.49177954	     -0.16262981	     -0.01661443	      2.05352666	     30.24923442	     -9.11051200	     -5.28404921	    -60.11079374	    -11.98362695	     -8.23939313	     28.06468368	     15.49273125	     11.75239566	     -0.21929598	    -13.98514512	      1.97331273	     -7.19999895	     11.18677564	      6.88297829	     -6.19839691	     -5.08889457
      8.28000000	    -11.15769366	      4.75102735	      1.87554880	     -0.15053171	     -0.01546194	      2.05252776	     31.13459252	     -8.56895190	     -5.52252422	    -58.61132515	    -11.05385454	     -8.14825092	     28.42471602	     14.12378201	     11.32062564	      0.30835683	    -13.24208306	      2.32630708	     -7.04462383	     11.16790901	      6.60499283	     -5.66958519	     -5.73949497
      8.29000000	    -11.13933799	      4.24073765	      2.33547718	     -0.13852578	     -0.01468966	      2.05146906	     32.04722199	     -8.12792739	     -5.88704790	    -56.94404891	    -10.17675322	     -8.07169654	     28.39248674	     12.89328450	     10.90124297	      0.81178144	    -12.56584693	      2.74487813	     -6.78835852	     11.24992239	      6.41095867	     -5.17824025	     -6.38936793
      8.30000000	    -10.92031184	      3.73126949	      2.74597947	     -0.12651444	     -0.01385164	      2.05054188	     32.65092908	     -7.65779293	     -6.26068893	    -55.04479005	     -9.38655807	     -8.03848104	     27.36872845	     11.41451370	     10.43842009	      1.31773813	    -11.80514077	      3.07836593	     -6.63149054	     11.34914092	      6.00575448	     -4.67247495	     -6.98328534
      8.31000000	    -10.97043932	      3.26919888	      3.23854484	     -0.11460545	     -0.01361495	      2.04964580	     33.50894499	     -7.29021680	     -6.67695389	    -53.07854846	     -8.38031172	     -7.80424920	     24.59911120	     10.29692868	     10.01573615	      1.77484976	    -11.15379257	      3.48540257	     -6.33448409	     11.49744371	      5.88358351	     -4.25161956	     -7.60123947
      8.32000000	    -10.86049559	      2.81624889	      3.68410169	     -0.10271467	     -0.01338705	      2.04885138	     34.07148693	     -6.91570149	     -7.09856435	    -50.80766263	     -7.64284930	     -7.65018664	     23.42972657	      9.00166388	      9.56512325	      2.22973270	    -10.47249022	      3.86600017	     -6.11959915	     11.55448972	      5.58759470	     -3.82231767	     -8.17005170
      8.33000000	    -10.85069784	      2.39801402	      4.10396112	     -0.09085760	     -0.01350061	      2.04822777	     34.67636743	     -6.55582599	     -7.47324852	    -48.38592122	     -6.81222779	     -7.29992644	     21.56793625	      7.85936610	      9.11984598	      2.56864722	     -9.84929242	      4.30205217	     -5.81535575	     11.64675293	      5.40007072	     -3.44087692	     -8.70437282
      8.34000000	    -11.10240170	      2.05760145	      4.54305043	     -0.07906170	     -0.01413046	      2.04761961	     35.49924097	     -6.35023872	     -7.91295968	    -45.79426491	     -6.12267890	     -6.75151230	     21.13967596	      7.06873071	      8.76675912	      2.80385820	     -9.32811818	      4.72123288	     -5.46377705	     11.74932582	      5.48954880	     -3.16272002	     -9.14756699
      8.35000000	    -11.05049305	      1.69885400	      4.75520840	     -0.06712222	     -0.01452751	      2.04741860	     35.88883221	     -5.94819011	     -8.20881748	    -42.95929410	     -5.40102970	     -5.98657471	     19.84587043	      5.90617236	      8.31318920	      2.80025072	     -8.70079735	      5.12660185	     -5.12025883	     11.88404989	      5.27150780	     -2.81970073	     -9.37612005
      8.36000000	    -11.31972150	      1.44495171	      5.00604985	     -0.05527498	     -0.01556111	      2.04721954	     36.58331580	     -5.74608379	     -8.57841011	    -40.05059234	     -4.65480210	     -4.79033599	     19.77560261	      5.18828169	      8.00910919	      2.69710714	     -8.24884275	      5.58057384	     -4.73852428	     12.01306693	      5.38278877	     -2.61967566	     -9.67459416
      8.37000000	    -11.47791780	      1.15709489	      5.15693353	     -0.04334383	     -0.01654253	      2.04722958	     37.04603275	     -5.45743687	     -9.01669233	    -36.94076900	     -3.98658172	     -3.32997636	     19.88715322	      4.36872607	      7.63596474	      2.37629048	     -7.81941443	      6.07143190	     -4.25353991	     12.18706300	      5.38153378	     -2.36705537	     -9.82710720
      8.38000000	    -11.53044969	      0.80038916	      5.20662607	     -0.03133581	     -0.01743167	      2.04744187	     37.27059191	     -5.03144891	     -9.52118862	    -33.62420443	     -3.48425147	     -1.69506346	     20.37538243	      3.46804257	      7.15788598	      1.86296413	     -7.44533575	      6.60747107	     -3.63866944	     12.49454834	      5.27707874	     -2.01748998	     -9.87476959
      8.39000000	    -11.64354204	      0.45606934	      5.22441036	     -0.01935598	     -0.01846080	      2.04773846	     37.47232369	     -4.61970642	    -10.13088095	    -30.23456203	     -2.99000063	      0.21932153	     21.14623653	      2.69198968	      6.70100979	      1.23387754	     -7.17964105	      7.11668609	     -3.00552427	     12.84376515	      5.22468912	     -1.68135276	     -9.86477367
      8.40000000	    -11.84495910	      0.17001527	      5.17402103	     -0.00747427	     -0.01968587	      2.04815157	     37.71772316	     -4.22977925	    -10.72700756	    -26.86994727	     -2.44314880	      2.35780216	     21.62002458	      2.08106976	      6.32065502	      0.53824924	     -7.04791607	      7.58884314	     -2.44642426	     13.09522860	      5.23914838	     -1.39965603	     -9.78726199
      8.41000000	    -12.05080748	     -0.07934850	      5.10911563	      0.00455858	     -0.02098890	      2.04870546	     37.86236058	     -3.84795373	    -11.43178920	    -23.49053866	     -1.93201036	      4.42830349	     21.75218217	      1.50698248	      5.96789137	     -0.21481715	     -7.00185191	      8.01651039	     -1.81758453	     13.28756222	      5.26902859	     -1.16589064	     -9.59586475
